2800 0 1 0           
10 Cubit 15.5 19 ACIS 28.0.2 Unknown 24 Fri Mar  3 09:45:32 2023 
1 9.9999999999999995e-07 1e-10 
T @77 3JWYB9ZG94R9G4P_C_RS8VTQK6NKMGQEDAUKTGRXJ8MCGG6V2C_VJZ7BFCTKQAQAFBRUEPPD7D4CG 
body $1 -1 -1 $-1 0 $2 $-1 $-1 T -41.380000000000003 -41.380000000000003 -68.385000000000005 41.380000000000003 41.380000000000003 68.385000000000005 #
integer_attrib-name_attrib-gen-attrib $-1 -1 $-1 $-1 $0 2 1 1 1 1 1 1 1 1 1 1 1 1 1 0 1 1 1 @8 CUBIT_ID 1 #
lump $3 -1 -1 $-1 $-1 $4 $0 T -41.380000000000003 -41.380000000000003 -68.385000000000005 41.380000000000003 41.380000000000003 68.385000000000005 #
integer_attrib-name_attrib-gen-attrib $-1 -1 $-1 $-1 $2 2 1 1 1 1 1 1 1 1 1 1 1 1 1 0 1 1 1 @8 CUBIT_ID 1 #
shell $-1 -1 -1 $-1 $-1 $-1 $5 $-1 $2 T -41.380000000000003 -41.380000000000003 -68.385000000000005 41.380000000000003 41.380000000000003 68.385000000000005 #
face $6 -1 -1 $-1 $7 $8 $4 $-1 $9 forward single T -12.4 -12.4 -18.895 12.4 12.4 -16.495000000000001 F #
integer_attrib-name_attrib-gen-attrib $-1 -1 $-1 $-1 $5 2 1 1 1 1 1 1 1 1 1 1 1 1 1 0 1 1 1 @8 CUBIT_ID 8 #
face $10 -1 -1 $-1 $11 $12 $4 $-1 $13 forward single T -10 -10 -68.385000000000005 10 10 -18.895 F #
loop $-1 -1 -1 $-1 $14 $15 $5 T -10 -10 -18.895 10 10 -18.895 u_sep $9 F #
torus-surface $-1 -1 -1 $-1 0 0 -18.895 -0 -0 1 12.4 -2.3999999999999999 1 -0 0 forward_v I I I I #
integer_attrib-name_attrib-gen-attrib $-1 -1 $-1 $-1 $7 2 1 1 1 1 1 1 1 1 1 1 1 1 1 0 1 1 1 @8 CUBIT_ID 4 #
face $16 -1 -1 $-1 $17 $18 $4 $-1 $19 forward single T -41.380000000000003 -41.380000000000003 -16.495000000000001 41.380000000000003 41.380000000000003 -16.495000000000001 F #
loop $-1 -1 -1 $-1 $20 $21 $7 T -10 -10 -68.385000000000005 10 10 -68.385000000000005 unknown #
cone-surface $-1 -1 -1 $-1 0 0 0 0 0 1 10 0 0 1 I I 0 1 10 forward I I I I #
loop $-1 -1 -1 $-1 $-1 $22 $5 T -12.4 -12.4 -16.495000000000001 12.4 12.4 -16.495000000000001 u_sep $9 F #
coedge $-1 -1 -1 $-1 $15 $15 $23 $24 forward $8 $-1 #
integer_attrib-name_attrib-gen-attrib $-1 -1 $-1 $-1 $11 2 1 1 1 1 1 1 1 1 1 1 1 1 1 0 1 1 1 @8 CUBIT_ID 6 #
face $25 -1 -1 $-1 $26 $27 $4 $-1 $28 forward single T -12.4 -12.4 16.495000000000001 12.4 12.4 18.895 F #
loop $-1 -1 -1 $-1 $29 $30 $11 T -41.380000000000003 -41.380000000000003 -16.495000000000001 41.380000000000003 41.380000000000003 -16.495000000000001 unknown #
plane-surface $-1 -1 -1 $-1 0 0 -16.495000000000001 0 0 -1 -1 0 0 forward_v I I I I #
loop $-1 -1 -1 $-1 $-1 $23 $7 T -10 -10 -18.895 10 10 -18.895 unknown #
coedge $-1 -1 -1 $-1 $21 $21 $31 $32 reversed $12 $-1 #
coedge $-1 -1 -1 $-1 $22 $22 $33 $34 forward $14 $-1 #
coedge $-1 -1 -1 $-1 $23 $23 $15 $24 reversed $20 $-1 #
edge $35 -1 -1 $-1 $36 -3.1415926535897931 $36 3.1415926535897931 $23 $37 forward @7 tangent T -10 -10 -18.895 10 10 -18.895 #
integer_attrib-name_attrib-gen-attrib $-1 -1 $-1 $-1 $17 2 1 1 1 1 1 1 1 1 1 1 1 1 1 0 1 1 1 @8 CUBIT_ID 9 #
face $38 -1 -1 $-1 $39 $40 $4 $-1 $13 forward single T -10 -10 18.895 10 10 68.385000000000005 F #
loop $-1 -1 -1 $-1 $41 $42 $17 T -10 -10 18.895 10 10 18.895 u_sep $28 F #
torus-surface $-1 -1 -1 $-1 0 0 18.895 -0 -0 -1 12.4 -2.3999999999999999 -1 0 0 forward_v I I I I #
loop $-1 -1 -1 $-1 $-1 $33 $11 T -12.4 -12.4 -16.495000000000001 12.4 12.4 -16.495000000000001 unknown #
coedge $-1 -1 -1 $-1 $30 $30 $43 $44 forward $18 $-1 #
coedge $-1 -1 -1 $-1 $31 $31 $21 $32 forward $45 $-1 #
edge $46 -1 -1 $-1 $47 0 $47 6.2831853071795862 $31 $48 forward @7 unknown T -10 -10 -68.385000000000005 10 10 -68.385000000000005 #
coedge $-1 -1 -1 $-1 $33 $33 $22 $34 reversed $29 $-1 #
edge $49 -1 -1 $-1 $50 -3.1415926535897931 $50 3.1415926535897931 $33 $51 forward @7 tangent T -12.4 -12.4 -16.495000000000001 12.4 12.4 -16.495000000000001 #
integer_attrib-name_attrib-gen-attrib $-1 -1 $-1 $-1 $24 2 1 1 1 1 1 1 1 1 1 1 1 1 1 0 1 1 1 @8 CUBIT_ID 7 #
vertex $52 -1 -1 $-1 $24 $53 #
ellipse-curve $-1 -1 -1 $-1 0 0 -18.895 -0 -0 1 10 0 0 1 I I #
integer_attrib-name_attrib-gen-attrib $-1 -1 $-1 $-1 $26 2 1 1 1 1 1 1 1 1 1 1 1 1 1 0 1 1 1 @8 CUBIT_ID 5 #
face $54 -1 -1 $-1 $55 $56 $4 $-1 $57 forward single T -41.380000000000003 -41.380000000000003 16.495000000000001 41.380000000000003 41.380000000000003 16.495000000000001 F #
loop $-1 -1 -1 $-1 $58 $59 $26 T -10 -10 68.385000000000005 10 10 68.385000000000005 unknown #
loop $-1 -1 -1 $-1 $-1 $60 $17 T -12.4 -12.4 16.495000000000001 12.4 12.4 16.495000000000001 u_sep $28 F #
coedge $-1 -1 -1 $-1 $42 $42 $61 $62 forward $27 $-1 #
coedge $-1 -1 -1 $-1 $43 $43 $30 $44 reversed $63 $-1 #
edge $64 -1 -1 $-1 $65 0 $65 6.2831853071795862 $30 $66 forward @7 unknown T -41.380000000000003 -41.380000000000003 -16.495000000000001 41.380000000000003 41.380000000000003 -16.495000000000001 #
loop $-1 -1 -1 $-1 $-1 $31 $55 T -10 -10 -68.385000000000005 10 10 -68.385000000000005 unknown #
integer_attrib-name_attrib-gen-attrib $-1 -1 $67 $-1 $32 2 1 1 1 1 1 1 1 1 1 1 1 1 1 0 1 1 1 @8 CUBIT_ID 3 #
vertex $68 -1 -1 $-1 $32 $69 #
ellipse-curve $-1 -1 -1 $-1 0 0 -68.385000000000005 0 0 -1 10 0 0 1 I I #
integer_attrib-name_attrib-gen-attrib $-1 -1 $-1 $-1 $34 2 1 1 1 1 1 1 1 1 1 1 1 1 1 0 1 1 1 @8 CUBIT_ID 8 #
vertex $70 -1 -1 $-1 $34 $71 #
ellipse-curve $-1 -1 -1 $-1 0 0 -16.495000000000001 0 0 -1 12.4 0 0 1 I I #
integer_attrib-name_attrib-gen-attrib $-1 -1 $-1 $-1 $36 2 1 1 1 1 1 1 1 1 1 1 1 1 1 0 1 1 1 @8 CUBIT_ID 7 #
point $-1 -1 -1 $-1 -10 -1.2246467991473531e-15 -18.895 #
integer_attrib-name_attrib-gen-attrib $-1 -1 $-1 $-1 $39 2 1 1 1 1 1 1 1 1 1 1 1 1 1 0 1 1 1 @8 CUBIT_ID 7 #
face $72 -1 -1 $-1 $73 $45 $4 $-1 $74 forward single T -10 -10 -68.385000000000005 10 10 -68.385000000000005 F #
loop $-1 -1 -1 $-1 $75 $76 $39 T -41.380000000000003 -41.380000000000003 16.495000000000001 41.380000000000003 41.380000000000003 16.495000000000001 unknown #
plane-surface $-1 -1 -1 $-1 0 0 16.495000000000001 0 0 1 1 0 0 forward_v I I I I #
loop $-1 -1 -1 $-1 $-1 $61 $26 T -10 -10 18.895 10 10 18.895 unknown #
coedge $-1 -1 -1 $-1 $59 $59 $77 $78 reversed $40 $-1 #
coedge $-1 -1 -1 $-1 $60 $60 $79 $80 forward $41 $-1 #
coedge $-1 -1 -1 $-1 $61 $61 $42 $62 reversed $58 $-1 #
edge $81 -1 -1 $-1 $82 -3.1415926535897931 $82 3.1415926535897931 $61 $83 forward @7 tangent T -10 -10 18.895 10 10 18.895 #
loop $-1 -1 -1 $-1 $84 $43 $85 T -41.380000000000003 -41.380000000000003 -16.495000000000001 41.380000000000003 41.380000000000003 -16.495000000000001 unknown #
integer_attrib-name_attrib-gen-attrib $-1 -1 $86 $-1 $44 2 1 1 1 1 1 1 1 1 1 1 1 1 1 0 1 1 1 @8 CUBIT_ID 1 #
vertex $87 -1 -1 $-1 $44 $88 #
ellipse-curve $-1 -1 -1 $-1 0 0 -16.495000000000001 0 0 -1 41.380000000000003 0 0 1 I I #
simple-snl-attrib $-1 -1 $-1 $46 $32 1 1 1 1 1 1 1 1 1 1 1 1 0 1 0 1 1 1 @17 NEW_SIMPLE_ATTRIB 1 @9 ENTITY_ID 0 3 3 -2147483648 -1 #
integer_attrib-name_attrib-gen-attrib $-1 -1 $89 $-1 $47 2 1 1 1 1 1 1 1 1 1 1 1 1 1 0 1 1 1 @8 CUBIT_ID 3 #
point $-1 -1 -1 $-1 10 0 -68.385000000000005 #
integer_attrib-name_attrib-gen-attrib $-1 -1 $-1 $-1 $50 2 1 1 1 1 1 1 1 1 1 1 1 1 1 0 1 1 1 @8 CUBIT_ID 8 #
point $-1 -1 -1 $-1 -12.4 1.5185620309427178e-15 -16.495000000000001 #
integer_attrib-name_attrib-gen-attrib $-1 -1 $90 $-1 $55 2 1 1 1 1 1 1 1 1 1 1 1 1 1 0 1 1 1 @8 CUBIT_ID 2 #
face $91 -1 -1 $-1 $85 $92 $4 $-1 $93 forward single T -10 -10 68.385000000000005 10 10 68.385000000000005 F #
plane-surface $-1 -1 -1 $-1 0 0 -68.385000000000005 0 0 -1 -1 0 0 forward_v I I I I #
loop $-1 -1 -1 $-1 $-1 $79 $39 T -12.4 -12.4 16.495000000000001 12.4 12.4 16.495000000000001 unknown #
coedge $-1 -1 -1 $-1 $76 $76 $94 $95 forward $56 $-1 #
coedge $-1 -1 -1 $-1 $77 $77 $59 $78 forward $92 $-1 #
edge $96 -1 -1 $-1 $97 0 $97 6.2831853071795862 $77 $98 forward @7 unknown T -10 -10 68.385000000000005 10 10 68.385000000000005 #
coedge $-1 -1 -1 $-1 $79 $79 $60 $80 reversed $75 $-1 #
edge $99 -1 -1 $-1 $100 -3.1415926535897931 $100 3.1415926535897931 $79 $101 forward @7 tangent T -12.4 -12.4 16.495000000000001 12.4 12.4 16.495000000000001 #
integer_attrib-name_attrib-gen-attrib $-1 -1 $-1 $-1 $62 2 1 1 1 1 1 1 1 1 1 1 1 1 1 0 1 1 1 @8 CUBIT_ID 9 #
vertex $102 -1 -1 $-1 $62 $103 #
ellipse-curve $-1 -1 -1 $-1 0 0 18.895 -0 -0 -1 10 0 0 1 I I #
loop $-1 -1 -1 $-1 $-1 $94 $85 T -41.380000000000003 -41.380000000000003 16.495000000000001 41.380000000000003 41.380000000000003 16.495000000000001 unknown #
face $104 -1 -1 $-1 $-1 $63 $4 $-1 $105 forward single T -41.380000000000003 -41.380000000000003 -16.495000000000001 41.380000000000003 41.380000000000003 16.495000000000001 F #
simple-snl-attrib $-1 -1 $-1 $64 $44 1 1 1 1 1 1 1 1 1 1 1 1 0 1 0 1 1 1 @17 NEW_SIMPLE_ATTRIB 1 @9 ENTITY_ID 0 3 1 -2147483648 -1 #
integer_attrib-name_attrib-gen-attrib $-1 -1 $106 $-1 $65 2 1 1 1 1 1 1 1 1 1 1 1 1 1 0 1 1 1 @8 CUBIT_ID 1 #
point $-1 -1 -1 $-1 41.380000000000003 0 -16.495000000000001 #
simple-snl-attrib $-1 -1 $-1 $68 $47 1 1 1 1 1 1 1 1 1 1 1 1 0 1 0 1 1 1 @17 NEW_SIMPLE_ATTRIB 1 @9 ENTITY_ID 0 3 3 -2147483648 -1 #
simple-snl-attrib $-1 -1 $-1 $72 $55 1 1 1 1 1 1 1 1 1 1 1 1 0 1 0 1 1 1 @17 NEW_SIMPLE_ATTRIB 1 @9 ENTITY_ID 0 3 2 -2147483648 -1 #
integer_attrib-name_attrib-gen-attrib $-1 -1 $107 $-1 $73 2 1 1 1 1 1 1 1 1 1 1 1 1 1 0 1 1 1 @8 CUBIT_ID 3 #
loop $-1 -1 -1 $-1 $-1 $77 $73 T -10 -10 68.385000000000005 10 10 68.385000000000005 unknown #
plane-surface $-1 -1 -1 $-1 0 0 68.385000000000005 0 0 1 1 0 0 forward_v I I I I #
coedge $-1 -1 -1 $-1 $94 $94 $76 $95 reversed $84 $-1 #
edge $108 -1 -1 $-1 $109 0 $109 6.2831853071795862 $76 $110 forward @7 unknown T -41.380000000000003 -41.380000000000003 16.495000000000001 41.380000000000003 41.380000000000003 16.495000000000001 #
integer_attrib-name_attrib-gen-attrib $-1 -1 $111 $-1 $78 2 1 1 1 1 1 1 1 1 1 1 1 1 1 0 1 1 1 @8 CUBIT_ID 4 #
vertex $112 -1 -1 $-1 $78 $113 #
ellipse-curve $-1 -1 -1 $-1 0 0 68.385000000000005 0 0 1 10 0 0 1 I I #
integer_attrib-name_attrib-gen-attrib $-1 -1 $-1 $-1 $80 2 1 1 1 1 1 1 1 1 1 1 1 1 1 0 1 1 1 @8 CUBIT_ID 10 #
vertex $114 -1 -1 $-1 $80 $115 #
ellipse-curve $-1 -1 -1 $-1 0 0 16.495000000000001 0 0 1 12.4 0 0 1 I I #
integer_attrib-name_attrib-gen-attrib $-1 -1 $-1 $-1 $82 2 1 1 1 1 1 1 1 1 1 1 1 1 1 0 1 1 1 @8 CUBIT_ID 9 #
point $-1 -1 -1 $-1 -10 1.2246467991473531e-15 18.895 #
integer_attrib-name_attrib-gen-attrib $-1 -1 $116 $-1 $85 2 1 1 1 1 1 1 1 1 1 1 1 1 1 0 1 1 1 @8 CUBIT_ID 1 #
cone-surface $-1 -1 -1 $-1 0 0 0 0 0 1 41.380000000000003 0 0 1 I I 0 1 41.380000000000003 forward I I I I #
simple-snl-attrib $-1 -1 $-1 $87 $65 1 1 1 1 1 1 1 1 1 1 1 1 0 1 0 1 1 1 @17 NEW_SIMPLE_ATTRIB 1 @9 ENTITY_ID 0 3 1 -2147483648 -1 #
simple-snl-attrib $-1 -1 $-1 $91 $73 1 1 1 1 1 1 1 1 1 1 1 1 0 1 0 1 1 1 @17 NEW_SIMPLE_ATTRIB 1 @9 ENTITY_ID 0 3 3 -2147483648 -1 #
integer_attrib-name_attrib-gen-attrib $-1 -1 $117 $-1 $95 2 1 1 1 1 1 1 1 1 1 1 1 1 1 0 1 1 1 @8 CUBIT_ID 2 #
vertex $118 -1 -1 $-1 $95 $119 #
ellipse-curve $-1 -1 -1 $-1 0 0 16.495000000000001 0 0 1 41.380000000000003 0 0 1 I I #
simple-snl-attrib $-1 -1 $-1 $96 $78 1 1 1 1 1 1 1 1 1 1 1 1 0 1 0 1 1 1 @17 NEW_SIMPLE_ATTRIB 1 @9 ENTITY_ID 0 3 4 -2147483648 -1 #
integer_attrib-name_attrib-gen-attrib $-1 -1 $120 $-1 $97 2 1 1 1 1 1 1 1 1 1 1 1 1 1 0 1 1 1 @8 CUBIT_ID 4 #
point $-1 -1 -1 $-1 10 0 68.385000000000005 #
integer_attrib-name_attrib-gen-attrib $-1 -1 $-1 $-1 $100 2 1 1 1 1 1 1 1 1 1 1 1 1 1 0 1 1 1 @8 CUBIT_ID 10 #
point $-1 -1 -1 $-1 -12.4 -1.5185620309427178e-15 16.495000000000001 #
simple-snl-attrib $-1 -1 $-1 $104 $85 1 1 1 1 1 1 1 1 1 1 1 1 0 1 0 1 1 1 @17 NEW_SIMPLE_ATTRIB 1 @9 ENTITY_ID 0 3 1 -2147483648 -1 #
simple-snl-attrib $-1 -1 $-1 $108 $95 1 1 1 1 1 1 1 1 1 1 1 1 0 1 0 1 1 1 @17 NEW_SIMPLE_ATTRIB 1 @9 ENTITY_ID 0 3 2 -2147483648 -1 #
integer_attrib-name_attrib-gen-attrib $-1 -1 $121 $-1 $109 2 1 1 1 1 1 1 1 1 1 1 1 1 1 0 1 1 1 @8 CUBIT_ID 2 #
point $-1 -1 -1 $-1 41.380000000000003 0 16.495000000000001 #
simple-snl-attrib $-1 -1 $-1 $112 $97 1 1 1 1 1 1 1 1 1 1 1 1 0 1 0 1 1 1 @17 NEW_SIMPLE_ATTRIB 1 @9 ENTITY_ID 0 3 4 -2147483648 -1 #
simple-snl-attrib $-1 -1 $-1 $118 $109 1 1 1 1 1 1 1 1 1 1 1 1 0 1 0 1 1 1 @17 NEW_SIMPLE_ATTRIB 1 @9 ENTITY_ID 0 3 2 -2147483648 -1 #
End-of-ACIS-data 